<svg class="svg-icon" style="width: 1em; height: 1em;vertical-align: middle;fill: currentColor;overflow: hidden;" viewBox="0 0 1024 1024" version="1.1" xmlns="http://www.w3.org/2000/svg"><path d="M740.5568 525.1584l-241.664-241.664L555.008 227.328a76.8512 76.8512 0 0 1 108.6976 0l132.9664 132.9664a76.8512 76.8512 0 0 1 0 108.6976l-56.1152 56.1664z m-35.328 35.2768L476.672 789.0944A102.8096 102.8096 0 0 1 402.2272 819.2l-170.1376-2.7648a24.9344 24.9344 0 0 1-24.576-24.576L204.8 621.824a102.8096 102.8096 0 0 1 30.1056-74.3936l228.6592-228.608 241.664 241.664z m-220.7744-130.56L388.9152 525.312a24.9344 24.9344 0 1 0 35.328 35.328l95.488-95.5392a24.9344 24.9344 0 1 0-35.328-35.328z m-154.4704 154.4704l-7.5776 7.5264a24.9344 24.9344 0 0 0 35.328 35.328l7.5264-7.5776a24.9344 24.9344 0 1 0-35.328-35.328z"  /></svg>